<svg id="visual" viewBox="0 0 960 540" width="960" height="540" xmlns="http://www.w3.org/2000/svg" xmlns:xlink="http://www.w3.org/1999/xlink" version="1.1"><path d="M0 235L26.7 232.2C53.3 229.3 106.7 223.7 160 242.3C213.3 261 266.7 304 320 316.7C373.3 329.3 426.7 311.7 480 294.8C533.3 278 586.7 262 640 272.8C693.3 283.7 746.7 321.3 800 319.7C853.3 318 906.7 277 933.3 256.5L960 236L960 541L933.3 541C906.7 541 853.3 541 800 541C746.7 541 693.3 541 640 541C586.7 541 533.3 541 480 541C426.7 541 373.3 541 320 541C266.7 541 213.3 541 160 541C106.7 541 53.3 541 26.7 541L0 541Z" fill="#130C23" stroke-linecap="round" stroke-linejoin="miter"></path></svg>